<svg xmlns="http://www.w3.org/2000/svg" viewBox="0 0 387.07 109.25"><defs><style>.cls-1,.cls-2{fill:#fff;}.cls-2{fill-rule:evenodd;}.cls-3{fill:#1dbecb;}.cls-4{fill:#43c3d2;}.cls-5{fill:#69cbdb;}.cls-6{fill:#00a1ae;}.cls-7{fill:#ffcb06;}</style></defs><g id="Layer_1" data-name="Layer 1"><path class="cls-1" d="M298.2,383.65c-8.82-3.4-14.41-4.61-23.12-4.61-14.63,0-23.23,6.53-23.23,18,0,9.65,6,15,19,16.95l3.12.44c6.08.93,8.49,1.75,8.49,3.84,0,2.3-2.19,3.51-7.5,3.51a36.15,36.15,0,0,1-19-5L250,430c6.14,4,15.62,5.65,24.83,5.65,15.67,0,24.87-7.08,24.87-18.87,0-9.06-6.08-14.6-17.59-16.35l-3.94-.61c-5.26-.82-8.66-1.37-8.66-3.67,0-2,1.75-3.29,6.25-3.29,5.48.05,12.38,1.92,17.7,4.17Z" transform="translate(-112.5 -336.75)"/><path class="cls-2" d="M313.5,346h6V446h-6Z" transform="translate(-112.5 -336.75)"/><path class="cls-1" d="M378.41,380.47H360.05V364.78H342.9v15.69h-10v15.19h10V413.6c0,13.5,6.52,22.11,20.93,22.11a30.64,30.64,0,0,0,19.07-6L377,416.35c-2.68,1.59-6.13,3.34-9.31,3.34-4.33,0-7.62-2.08-7.62-8.28V395.66h18.36Z" transform="translate(-112.5 -336.75)"/><path class="cls-1" d="M406.8,380.47H389.65v53.82H406.8Zm-8.66-26.89a10.26,10.26,0,1,0,10.25,10.32A10.12,10.12,0,0,0,398.14,353.58Z" transform="translate(-112.5 -336.75)"/><path class="cls-1" d="M436,355.28H418.8v79H436Z" transform="translate(-112.5 -336.75)"/><path class="cls-1" d="M472.67,379c-16.33,0-27.57,11.74-27.57,28.69,0,16.79,11.46,28,28.33,28,9.92,0,18.09-3.23,23.68-8.83L486,416.57a17.89,17.89,0,0,1-11.73,4.71c-5.92,0-10.08-2.74-11.51-8.61h36.44a36.69,36.69,0,0,0,.33-5.32C499.52,390.51,488.61,379,472.67,379Zm.05,14.59c5,0,8.33,2.85,9.7,8.23H462.86C464.17,396.49,467.41,393.58,472.72,393.58Z" transform="translate(-112.5 -336.75)"/></g><g id="Layer_3" data-name="Layer 3"><rect class="cls-3" x="70" y="79.25" width="30" height="30" rx="5"/><rect class="cls-3" x="35" y="44.25" width="30" height="30" rx="5"/><rect class="cls-3" y="9.25" width="30" height="30" rx="5"/><rect class="cls-4" x="35" y="79.25" width="30" height="30" rx="5"/><rect class="cls-4" y="44.25" width="30" height="30" rx="5"/><rect class="cls-5" y="79.25" width="30" height="30" rx="5"/><rect class="cls-6" x="70" y="44.25" width="30" height="30" rx="5"/><rect class="cls-6" x="35" y="9.25" width="30" height="30" rx="5"/><rect class="cls-7" x="193.5" y="339" width="30" height="30" rx="5" transform="translate(-13.77 -378.65) rotate(15)"/></g></svg>